<mxfile host="Electron" agent="Mozilla/5.0 (Windows NT 10.0; Win64; x64) AppleWebKit/537.36 (KHTML, like Gecko) draw.io/25.0.2 Chrome/128.0.6613.186 Electron/32.2.5 Safari/537.36" version="25.0.2">
  <diagram name="Страница — 1" id="15wqBElGQTuC8RKuLwZA">
    <mxGraphModel dx="1036" dy="710" grid="1" gridSize="10" guides="1" tooltips="1" connect="1" arrows="1" fold="1" page="1" pageScale="1" pageWidth="827" pageHeight="1169" math="0" shadow="0">
      <root>
        <mxCell id="0" />
        <mxCell id="1" parent="0" />
        <mxCell id="QPbxQ0zY-jy2g83flSN5-16" style="edgeStyle=orthogonalEdgeStyle;rounded=0;orthogonalLoop=1;jettySize=auto;html=1;exitX=0.5;exitY=1;exitDx=0;exitDy=0;entryX=0.5;entryY=0;entryDx=0;entryDy=0;" edge="1" parent="1" source="QPbxQ0zY-jy2g83flSN5-1" target="QPbxQ0zY-jy2g83flSN5-2">
          <mxGeometry relative="1" as="geometry" />
        </mxCell>
        <mxCell id="QPbxQ0zY-jy2g83flSN5-1" value="void shellSort(int arr[], int n)" style="ellipse;whiteSpace=wrap;html=1;" vertex="1" parent="1">
          <mxGeometry x="200" y="20" width="160" height="40" as="geometry" />
        </mxCell>
        <mxCell id="QPbxQ0zY-jy2g83flSN5-4" style="edgeStyle=orthogonalEdgeStyle;rounded=0;orthogonalLoop=1;jettySize=auto;html=1;exitX=0.5;exitY=1;exitDx=0;exitDy=0;entryX=0.5;entryY=0;entryDx=0;entryDy=0;" edge="1" parent="1" source="QPbxQ0zY-jy2g83flSN5-2" target="QPbxQ0zY-jy2g83flSN5-3">
          <mxGeometry relative="1" as="geometry" />
        </mxCell>
        <mxCell id="QPbxQ0zY-jy2g83flSN5-17" style="edgeStyle=orthogonalEdgeStyle;rounded=0;orthogonalLoop=1;jettySize=auto;html=1;exitX=1;exitY=0.5;exitDx=0;exitDy=0;" edge="1" parent="1" source="QPbxQ0zY-jy2g83flSN5-2">
          <mxGeometry relative="1" as="geometry">
            <mxPoint x="560" y="240" as="targetPoint" />
          </mxGeometry>
        </mxCell>
        <mxCell id="QPbxQ0zY-jy2g83flSN5-2" value="&amp;nbsp;for (int gap = n / 2; gap &amp;gt; 0; gap /= 2)" style="shape=hexagon;perimeter=hexagonPerimeter2;whiteSpace=wrap;html=1;fixedSize=1;" vertex="1" parent="1">
          <mxGeometry x="205" y="80" width="150" height="40" as="geometry" />
        </mxCell>
        <mxCell id="QPbxQ0zY-jy2g83flSN5-6" style="edgeStyle=orthogonalEdgeStyle;rounded=0;orthogonalLoop=1;jettySize=auto;html=1;exitX=0.5;exitY=1;exitDx=0;exitDy=0;entryX=0.5;entryY=0;entryDx=0;entryDy=0;" edge="1" parent="1" source="QPbxQ0zY-jy2g83flSN5-3" target="QPbxQ0zY-jy2g83flSN5-5">
          <mxGeometry relative="1" as="geometry" />
        </mxCell>
        <mxCell id="QPbxQ0zY-jy2g83flSN5-3" value="for (int i = gap; i &amp;lt; n; i++)" style="shape=hexagon;perimeter=hexagonPerimeter2;whiteSpace=wrap;html=1;fixedSize=1;" vertex="1" parent="1">
          <mxGeometry x="210" y="140" width="140" height="40" as="geometry" />
        </mxCell>
        <mxCell id="QPbxQ0zY-jy2g83flSN5-5" value="&lt;div&gt;int temp = arr[i];&lt;/div&gt;&lt;div&gt;int j;&lt;/div&gt;" style="whiteSpace=wrap;html=1;" vertex="1" parent="1">
          <mxGeometry x="220" y="200" width="120" height="30" as="geometry" />
        </mxCell>
        <mxCell id="QPbxQ0zY-jy2g83flSN5-9" style="edgeStyle=orthogonalEdgeStyle;rounded=0;orthogonalLoop=1;jettySize=auto;html=1;exitX=0.5;exitY=1;exitDx=0;exitDy=0;entryX=0.5;entryY=0;entryDx=0;entryDy=0;" edge="1" parent="1" source="QPbxQ0zY-jy2g83flSN5-7" target="QPbxQ0zY-jy2g83flSN5-8">
          <mxGeometry relative="1" as="geometry" />
        </mxCell>
        <mxCell id="QPbxQ0zY-jy2g83flSN5-12" style="edgeStyle=orthogonalEdgeStyle;rounded=0;orthogonalLoop=1;jettySize=auto;html=1;exitX=1;exitY=0.5;exitDx=0;exitDy=0;entryX=0.5;entryY=0;entryDx=0;entryDy=0;" edge="1" parent="1" source="QPbxQ0zY-jy2g83flSN5-7" target="QPbxQ0zY-jy2g83flSN5-11">
          <mxGeometry relative="1" as="geometry" />
        </mxCell>
        <mxCell id="QPbxQ0zY-jy2g83flSN5-7" value="for (j = i; j &amp;gt;= gap &amp;amp;&amp;amp; arr[j - gap] &amp;gt; temp; j -= gap)" style="shape=hexagon;perimeter=hexagonPerimeter2;whiteSpace=wrap;html=1;fixedSize=1;" vertex="1" parent="1">
          <mxGeometry x="200" y="250" width="160" height="40" as="geometry" />
        </mxCell>
        <mxCell id="QPbxQ0zY-jy2g83flSN5-10" style="edgeStyle=orthogonalEdgeStyle;rounded=0;orthogonalLoop=1;jettySize=auto;html=1;exitX=0.5;exitY=1;exitDx=0;exitDy=0;entryX=0;entryY=0.5;entryDx=0;entryDy=0;" edge="1" parent="1" source="QPbxQ0zY-jy2g83flSN5-8" target="QPbxQ0zY-jy2g83flSN5-7">
          <mxGeometry relative="1" as="geometry" />
        </mxCell>
        <mxCell id="QPbxQ0zY-jy2g83flSN5-8" value="arr[j] = arr[j - gap];" style="whiteSpace=wrap;html=1;" vertex="1" parent="1">
          <mxGeometry x="220" y="310" width="120" height="30" as="geometry" />
        </mxCell>
        <mxCell id="QPbxQ0zY-jy2g83flSN5-13" style="edgeStyle=orthogonalEdgeStyle;rounded=0;orthogonalLoop=1;jettySize=auto;html=1;exitX=0.5;exitY=1;exitDx=0;exitDy=0;entryX=0;entryY=0.5;entryDx=0;entryDy=0;" edge="1" parent="1" source="QPbxQ0zY-jy2g83flSN5-11" target="QPbxQ0zY-jy2g83flSN5-3">
          <mxGeometry relative="1" as="geometry">
            <Array as="points">
              <mxPoint x="440" y="400" />
              <mxPoint x="140" y="400" />
              <mxPoint x="140" y="160" />
            </Array>
          </mxGeometry>
        </mxCell>
        <mxCell id="QPbxQ0zY-jy2g83flSN5-11" value="arr[j] = temp;" style="whiteSpace=wrap;html=1;" vertex="1" parent="1">
          <mxGeometry x="380" y="310" width="120" height="35" as="geometry" />
        </mxCell>
        <mxCell id="QPbxQ0zY-jy2g83flSN5-18" value="return;" style="ellipse;whiteSpace=wrap;html=1;" vertex="1" parent="1">
          <mxGeometry x="520" y="240" width="80" height="40" as="geometry" />
        </mxCell>
        <mxCell id="QPbxQ0zY-jy2g83flSN5-22" style="edgeStyle=orthogonalEdgeStyle;rounded=0;orthogonalLoop=1;jettySize=auto;html=1;exitX=0.5;exitY=1;exitDx=0;exitDy=0;entryX=0.5;entryY=0;entryDx=0;entryDy=0;" edge="1" parent="1" source="QPbxQ0zY-jy2g83flSN5-19" target="QPbxQ0zY-jy2g83flSN5-21">
          <mxGeometry relative="1" as="geometry" />
        </mxCell>
        <mxCell id="QPbxQ0zY-jy2g83flSN5-19" value="int partition(int arr[], int low, int high)" style="ellipse;whiteSpace=wrap;html=1;" vertex="1" parent="1">
          <mxGeometry x="1060" y="40" width="120" height="50" as="geometry" />
        </mxCell>
        <mxCell id="QPbxQ0zY-jy2g83flSN5-24" style="edgeStyle=orthogonalEdgeStyle;rounded=0;orthogonalLoop=1;jettySize=auto;html=1;exitX=0.5;exitY=1;exitDx=0;exitDy=0;entryX=0.5;entryY=0;entryDx=0;entryDy=0;" edge="1" parent="1" source="QPbxQ0zY-jy2g83flSN5-21" target="QPbxQ0zY-jy2g83flSN5-23">
          <mxGeometry relative="1" as="geometry" />
        </mxCell>
        <mxCell id="QPbxQ0zY-jy2g83flSN5-21" value="&lt;div&gt;int pivot = arr[high];&lt;/div&gt;&lt;div&gt;int i = (low - 1);&lt;/div&gt;" style="whiteSpace=wrap;html=1;" vertex="1" parent="1">
          <mxGeometry x="1060" y="110" width="120" height="30" as="geometry" />
        </mxCell>
        <mxCell id="QPbxQ0zY-jy2g83flSN5-26" style="edgeStyle=orthogonalEdgeStyle;rounded=0;orthogonalLoop=1;jettySize=auto;html=1;exitX=0.5;exitY=1;exitDx=0;exitDy=0;entryX=0.5;entryY=0;entryDx=0;entryDy=0;" edge="1" parent="1" source="QPbxQ0zY-jy2g83flSN5-23" target="QPbxQ0zY-jy2g83flSN5-25">
          <mxGeometry relative="1" as="geometry" />
        </mxCell>
        <mxCell id="QPbxQ0zY-jy2g83flSN5-32" style="edgeStyle=orthogonalEdgeStyle;rounded=0;orthogonalLoop=1;jettySize=auto;html=1;exitX=1;exitY=0.5;exitDx=0;exitDy=0;entryX=0.5;entryY=0;entryDx=0;entryDy=0;" edge="1" parent="1" source="QPbxQ0zY-jy2g83flSN5-23" target="QPbxQ0zY-jy2g83flSN5-33">
          <mxGeometry relative="1" as="geometry">
            <mxPoint x="1360" y="280" as="targetPoint" />
          </mxGeometry>
        </mxCell>
        <mxCell id="QPbxQ0zY-jy2g83flSN5-23" value="for (int j = low; j &amp;lt; high; j++)" style="shape=hexagon;perimeter=hexagonPerimeter2;whiteSpace=wrap;html=1;fixedSize=1;" vertex="1" parent="1">
          <mxGeometry x="1060" y="160" width="120" height="30" as="geometry" />
        </mxCell>
        <mxCell id="QPbxQ0zY-jy2g83flSN5-28" style="edgeStyle=orthogonalEdgeStyle;rounded=0;orthogonalLoop=1;jettySize=auto;html=1;exitX=0;exitY=0.5;exitDx=0;exitDy=0;" edge="1" parent="1" source="QPbxQ0zY-jy2g83flSN5-25" target="QPbxQ0zY-jy2g83flSN5-27">
          <mxGeometry relative="1" as="geometry" />
        </mxCell>
        <mxCell id="QPbxQ0zY-jy2g83flSN5-29" style="edgeStyle=orthogonalEdgeStyle;rounded=0;orthogonalLoop=1;jettySize=auto;html=1;exitX=1;exitY=0.5;exitDx=0;exitDy=0;" edge="1" parent="1" source="QPbxQ0zY-jy2g83flSN5-25">
          <mxGeometry relative="1" as="geometry">
            <mxPoint x="1120" y="360" as="targetPoint" />
            <Array as="points">
              <mxPoint x="1241" y="235" />
            </Array>
          </mxGeometry>
        </mxCell>
        <mxCell id="QPbxQ0zY-jy2g83flSN5-25" value="if (arr[j] &amp;lt;= pivot)" style="rhombus;whiteSpace=wrap;html=1;" vertex="1" parent="1">
          <mxGeometry x="1072.5" y="210" width="95" height="50" as="geometry" />
        </mxCell>
        <mxCell id="QPbxQ0zY-jy2g83flSN5-30" style="edgeStyle=orthogonalEdgeStyle;rounded=0;orthogonalLoop=1;jettySize=auto;html=1;exitX=0.5;exitY=1;exitDx=0;exitDy=0;" edge="1" parent="1" source="QPbxQ0zY-jy2g83flSN5-27">
          <mxGeometry relative="1" as="geometry">
            <mxPoint x="1120" y="360" as="targetPoint" />
            <Array as="points">
              <mxPoint x="1000" y="340" />
              <mxPoint x="1001" y="340" />
            </Array>
          </mxGeometry>
        </mxCell>
        <mxCell id="QPbxQ0zY-jy2g83flSN5-27" value="&lt;div&gt;i++;&amp;nbsp;&lt;/div&gt;&lt;div&gt;swap(arr[i], arr[j]);&lt;/div&gt;" style="whiteSpace=wrap;html=1;" vertex="1" parent="1">
          <mxGeometry x="940" y="280" width="120" height="40" as="geometry" />
        </mxCell>
        <mxCell id="QPbxQ0zY-jy2g83flSN5-31" value="" style="edgeStyle=none;orthogonalLoop=1;jettySize=auto;html=1;rounded=0;entryX=0;entryY=0.5;entryDx=0;entryDy=0;" edge="1" parent="1" target="QPbxQ0zY-jy2g83flSN5-23">
          <mxGeometry width="100" relative="1" as="geometry">
            <mxPoint x="1120" y="360" as="sourcePoint" />
            <mxPoint x="1120" y="400" as="targetPoint" />
            <Array as="points">
              <mxPoint x="1120" y="400" />
              <mxPoint x="900" y="400" />
              <mxPoint x="900" y="175" />
            </Array>
          </mxGeometry>
        </mxCell>
        <mxCell id="QPbxQ0zY-jy2g83flSN5-35" style="edgeStyle=orthogonalEdgeStyle;rounded=0;orthogonalLoop=1;jettySize=auto;html=1;exitX=0.5;exitY=1;exitDx=0;exitDy=0;entryX=0.5;entryY=0;entryDx=0;entryDy=0;" edge="1" parent="1" source="QPbxQ0zY-jy2g83flSN5-33" target="QPbxQ0zY-jy2g83flSN5-34">
          <mxGeometry relative="1" as="geometry" />
        </mxCell>
        <mxCell id="QPbxQ0zY-jy2g83flSN5-33" value="&lt;div&gt;swap(arr[i + 1], arr[high]);&amp;nbsp;&lt;/div&gt;" style="whiteSpace=wrap;html=1;" vertex="1" parent="1">
          <mxGeometry x="1310" y="280" width="120" height="40" as="geometry" />
        </mxCell>
        <mxCell id="QPbxQ0zY-jy2g83flSN5-34" value="return (i + 1);" style="ellipse;whiteSpace=wrap;html=1;" vertex="1" parent="1">
          <mxGeometry x="1330" y="350" width="80" height="40" as="geometry" />
        </mxCell>
      </root>
    </mxGraphModel>
  </diagram>
</mxfile>
